<?xml version="1.0" encoding="utf-8"?>
<svg version="1.1" id="svg1" width="918.66669" height="920" viewBox="0 0 918.66669 920" xmlns="http://www.w3.org/2000/svg">
  <defs id="defs1">
    <clipPath clipPathUnits="userSpaceOnUse" id="clipPath2">
      <path d="M 0,690 H 689 V 0 H 0 Z" transform="translate(-451.30351,-361.89271)" id="path2"/>
    </clipPath>
  </defs>
  <g id="layer-MC0" transform="matrix(1.727836, 0, 0, 1.748927, -324.092651, -374.323975)" style="">
    <path id="path1" d="m 0,0 h -10.256 l -43.29,43.494 c -0.981,0.986 -1.994,1.926 -3.036,2.821 l -94.602,94.602 c -0.317,0.317 -0.637,0.631 -0.958,0.944 -0.096,0.093 -0.194,0.186 -0.29,0.279 -0.231,0.223 -0.463,0.444 -0.696,0.664 -0.108,0.102 -0.216,0.203 -0.324,0.305 -0.245,0.229 -0.492,0.457 -0.739,0.684 -0.085,0.077 -0.169,0.155 -0.254,0.232 -0.33,0.3 -0.662,0.598 -0.996,0.893 -0.067,0.059 -0.135,0.117 -0.202,0.176 -0.27,0.237 -0.541,0.472 -0.813,0.706 -0.111,0.095 -0.222,0.189 -0.333,0.283 -0.239,0.204 -0.479,0.406 -0.72,0.606 -0.111,0.092 -0.221,0.185 -0.332,0.276 -0.291,0.24 -0.584,0.479 -0.878,0.715 -0.054,0.043 -0.107,0.087 -0.161,0.131 -0.347,0.278 -0.697,0.553 -1.048,0.827 -0.097,0.075 -0.195,0.149 -0.292,0.224 -0.259,0.2 -0.519,0.399 -0.78,0.596 -0.119,0.09 -0.238,0.179 -0.357,0.268 -0.257,0.192 -0.515,0.383 -0.775,0.572 -0.105,0.077 -0.209,0.155 -0.315,0.231 -0.36,0.261 -0.721,0.52 -1.085,0.776 -0.031,0.022 -0.062,0.043 -0.093,0.065 -0.333,0.233 -0.668,0.464 -1.003,0.693 -0.116,0.079 -0.233,0.157 -0.349,0.236 -0.144,0.097 -0.287,0.196 -0.431,0.292 H 0 c 9.874,0 19.45,-1.932 28.459,-5.743 8.707,-3.682 16.527,-8.956 23.245,-15.673 6.717,-6.718 11.991,-14.539 15.673,-23.245 3.811,-9.009 5.743,-18.585 5.743,-28.459 V 73.12 C 73.12,63.246 71.188,53.671 67.377,44.661 63.695,35.954 58.421,28.134 51.704,21.416 44.986,14.699 37.166,9.426 28.459,5.743 19.45,1.932 9.874,0 0,0 m 64.3,-104.477 c 3.79,-9.347 5.712,-19.226 5.712,-29.362 0,-10.136 -1.922,-20.015 -5.712,-29.361 -3.923,-9.673 -9.689,-18.355 -17.139,-25.805 l -0.28,-0.281 c -7.387,-7.314 -15.973,-12.985 -25.525,-16.859 -9.347,-3.79 -19.226,-5.712 -29.362,-5.712 -10.136,0 -20.015,1.922 -29.362,5.712 -9.673,3.923 -18.355,9.689 -25.805,17.139 l -61.373,61.372 V 8.055 c 0,0.244 0.002,0.488 0.006,0.734 0.12,7.354 2.358,14.242 6.473,19.918 3.86,5.325 9.227,9.481 15.518,12.019 6.335,2.555 13.145,3.286 19.694,2.114 5.876,-1.052 11.379,-3.656 16.094,-7.591 l 48.072,-48.071 v 0 l 65.85,-65.851 c 7.45,-7.449 13.216,-16.131 17.139,-25.804 M -139.568,8.055 v -139.158 c 0,-10.536 -2.062,-20.752 -6.128,-30.366 -3.929,-9.289 -9.555,-17.634 -16.723,-24.801 -7.167,-7.168 -15.511,-12.794 -24.8,-16.723 -9.614,-4.066 -19.83,-6.128 -30.367,-6.128 -10.536,0 -20.752,2.062 -30.365,6.128 -9.29,3.929 -17.634,9.555 -24.801,16.723 -7.168,7.167 -12.794,15.512 -16.723,24.801 -4.066,9.614 -6.128,19.83 -6.128,30.366 V 75.306 c 0,4.963 0.458,9.856 1.368,14.649 l 0.639,-0.107 c 0.093,0.489 0.191,0.976 0.294,1.462 0.595,2.824 1.343,5.6 2.238,8.318 3.554,10.784 9.433,20.652 17.315,29.007 0.1,0.106 0.199,0.214 0.299,0.32 0.137,0.143 0.277,0.284 0.415,0.426 0.2,0.207 0.399,0.415 0.602,0.62 l 0.294,0.294 c 0.363,0.363 0.73,0.722 1.099,1.078 0.145,0.139 0.292,0.275 0.438,0.414 0.226,0.213 0.45,0.428 0.678,0.639 0.167,0.155 0.337,0.306 0.506,0.46 0.209,0.19 0.417,0.382 0.627,0.569 0.175,0.156 0.353,0.308 0.529,0.462 0.207,0.181 0.413,0.365 0.622,0.544 0.071,0.06 0.143,0.119 0.214,0.18 0.11,0.093 0.221,0.185 0.331,0.277 0.207,0.175 0.413,0.351 0.622,0.523 0.192,0.158 0.386,0.312 0.58,0.468 0.201,0.163 0.401,0.327 0.604,0.488 0.201,0.158 0.404,0.313 0.606,0.47 0.198,0.154 0.394,0.309 0.594,0.461 0.205,0.156 0.412,0.307 0.619,0.461 0.199,0.148 0.397,0.299 0.597,0.445 0.209,0.153 0.421,0.301 0.631,0.452 0.2,0.143 0.399,0.288 0.6,0.429 0.214,0.149 0.43,0.295 0.645,0.443 0.201,0.137 0.4,0.277 0.602,0.412 0.219,0.147 0.44,0.291 0.661,0.436 0.2,0.131 0.399,0.265 0.6,0.394 0.226,0.146 0.454,0.287 0.681,0.43 0.198,0.125 0.396,0.252 0.595,0.375 0.228,0.141 0.459,0.277 0.689,0.416 0.201,0.121 0.4,0.244 0.602,0.363 0.231,0.136 0.464,0.269 0.697,0.402 0.202,0.117 0.404,0.236 0.608,0.351 0.234,0.132 0.469,0.259 0.704,0.389 0.205,0.113 0.409,0.228 0.615,0.339 0.236,0.126 0.473,0.249 0.71,0.373 0.208,0.11 0.414,0.221 0.623,0.328 0.238,0.122 0.478,0.24 0.717,0.36 0.209,0.105 0.418,0.212 0.629,0.315 0.239,0.117 0.481,0.23 0.722,0.345 0.212,0.101 0.423,0.204 0.637,0.303 0.242,0.113 0.486,0.221 0.729,0.331 0.214,0.097 0.427,0.196 0.642,0.291 0.244,0.108 0.491,0.212 0.736,0.317 0.216,0.093 0.431,0.187 0.648,0.278 0.246,0.103 0.493,0.201 0.74,0.302 0.219,0.089 0.437,0.179 0.657,0.266 0.247,0.098 0.496,0.192 0.745,0.287 0.221,0.085 0.441,0.172 0.662,0.255 0.249,0.092 0.5,0.181 0.75,0.272 0.223,0.08 0.446,0.163 0.67,0.242 0.25,0.087 0.502,0.171 0.753,0.256 0.226,0.077 0.451,0.156 0.678,0.23 0.25,0.083 0.502,0.161 0.753,0.241 0.23,0.073 0.459,0.148 0.689,0.219 0.251,0.077 0.502,0.15 0.753,0.224 0.234,0.069 0.466,0.14 0.7,0.208 0.251,0.071 0.504,0.139 0.756,0.209 0.236,0.065 0.471,0.132 0.707,0.194 0.252,0.067 0.505,0.13 0.757,0.194 0.239,0.061 0.477,0.124 0.717,0.182 0.251,0.062 0.504,0.119 0.756,0.179 0.242,0.056 0.484,0.115 0.727,0.169 0.252,0.057 0.506,0.109 0.759,0.164 0.244,0.052 0.488,0.106 0.733,0.156 0.253,0.051 0.508,0.099 0.762,0.148 0.246,0.048 0.493,0.098 0.74,0.143 0.254,0.047 0.508,0.089 0.762,0.133 0.226,0.04 0.45,0.08 0.676,0.117 0.162,0.019 0.324,0.036 0.486,0.054 0.069,0.008 0.139,0.016 0.209,0.023 0.096,0.01 0.191,0.021 0.287,0.031 0.19,0.02 0.38,0.037 0.57,0.055 0.168,0.016 0.336,0.033 0.504,0.048 0.191,0.016 0.382,0.031 0.574,0.046 0.168,0.013 0.336,0.028 0.504,0.04 0.193,0.014 0.386,0.026 0.579,0.039 0.167,0.01 0.334,0.022 0.502,0.032 0.196,0.012 0.393,0.021 0.59,0.031 0.164,0.008 0.328,0.017 0.492,0.025 0.21,0.009 0.419,0.015 0.629,0.023 0.151,0.005 0.303,0.012 0.454,0.016 0.236,0.007 0.471,0.011 0.706,0.016 0.126,0.002 0.253,0.006 0.379,0.008 0.361,0.005 0.722,0.008 1.083,0.008 h 13.521 c 0.038,-0.005 0.076,-0.009 0.114,-0.014 0.02,-0.002 0.04,-0.005 0.059,-0.007 0.456,-0.056 0.912,-0.114 1.367,-0.178 0.066,-0.009 0.131,-0.018 0.197,-0.027 0.188,-0.027 0.376,-0.057 0.563,-0.085 0.292,-0.044 0.584,-0.086 0.875,-0.133 0.06,-0.009 0.119,-0.019 0.179,-0.029 0.205,-0.033 0.408,-0.071 0.612,-0.106 0.28,-0.048 0.56,-0.094 0.84,-0.145 0.052,-0.009 0.105,-0.019 0.158,-0.029 0.212,-0.039 0.423,-0.082 0.635,-0.123 0.278,-0.054 0.556,-0.106 0.833,-0.162 0.044,-0.009 0.088,-0.019 0.132,-0.028 0.218,-0.045 0.435,-0.094 0.653,-0.141 0.278,-0.06 0.557,-0.118 0.835,-0.181 0.033,-0.007 0.066,-0.015 0.099,-0.022 0.224,-0.051 0.447,-0.107 0.67,-0.16 0.281,-0.066 0.563,-0.131 0.843,-0.201 0.02,-0.005 0.04,-0.01 0.06,-0.015 0.231,-0.058 0.462,-0.12 0.693,-0.18 0.283,-0.074 0.568,-0.145 0.85,-0.222 0.003,-0.001 0.006,-0.002 0.009,-0.003 0.246,-0.067 0.49,-0.138 0.735,-0.208 0.289,-0.081 0.579,-0.161 0.867,-0.246 0.044,-0.013 0.089,-0.026 0.133,-0.039 12.336,-3.668 23.698,-10.449 32.862,-19.612 L -89.91,58.399 c -6.194,-0.113 -12.38,-1.37 -18.259,-3.742 -8.912,-3.595 -16.541,-9.519 -22.06,-17.132 -5.935,-8.186 -9.161,-18.039 -9.331,-28.491 -0.005,-0.326 -0.008,-0.652 -0.008,-0.979 m 201.894,2.739 c 8.092,8.092 14.447,17.518 18.887,28.015 4.598,10.871 6.929,22.415 6.929,34.311 v 6.351 c 0,11.896 -2.331,23.44 -6.929,34.311 -4.44,10.497 -10.795,19.923 -18.887,28.015 -8.092,8.092 -17.518,14.447 -28.015,18.887 C 23.44,165.282 11.896,167.613 0,167.613 h -205.88 c -3.857,0.485 -7.792,0.734 -11.706,0.734 -7.874,0 -15.7,-0.988 -23.262,-2.935 -14.107,-3.213 -27.349,-9.962 -38.3,-19.524 -10.856,-9.479 -19.296,-21.568 -24.416,-34.97 l -0.172,-0.414 -0.008,-0.029 c -4.565,-11.17 -6.881,-22.999 -6.881,-35.169 v -206.409 c 0,-12.557 2.461,-24.742 7.314,-36.218 4.687,-11.08 11.394,-21.029 19.936,-29.571 8.543,-8.543 18.492,-15.25 29.572,-19.937 11.475,-4.853 23.66,-7.314 36.218,-7.314 12.557,0 24.742,2.461 36.218,7.314 11.08,4.687 21.029,11.394 29.571,19.937 8.542,8.542 15.249,18.491 19.936,29.571 2.715,6.421 4.682,13.064 5.887,19.87 l 52.178,-52.178 c 8.879,-8.879 19.236,-15.755 30.782,-20.437 11.148,-4.521 22.926,-6.813 35.007,-6.813 12.08,0 23.858,2.292 35.007,6.813 11.546,4.682 21.903,11.558 30.783,20.437 l 2.2,2.202 v 0.074 c 7.821,8.357 13.949,17.933 18.237,28.507 4.521,11.149 6.813,22.927 6.813,35.007 0,12.081 -2.292,23.859 -6.813,35.007 -4.682,11.546 -11.558,21.903 -20.437,30.782 L 4.636,-14.902 c 10.26,0.527 20.222,2.811 29.675,6.81 10.497,4.439 19.923,10.794 28.015,18.886" style="fill:#4e49dc;fill-opacity:1;fill-rule:nonzero;stroke:none" transform="matrix(1.3333333,0,0,-1.3333333,601.738,437.4764)" clip-path="url(#clipPath2)"/>
  </g>
</svg>